<svg xmlns="http://www.w3.org/2000/svg" width="48" height="48" id="code"><g transform="translate(0 -1004.362)"><circle cx="24" cy="1028.362" r="24" fill="#239fdb" fill-rule="evenodd"></circle><path fill="#f0f4f7" d="M12 1015.362h23c.554 0 1 .446 1 1v21c0 .554-.446 1-1 1H12c-.554 0-1-.446-1-1v-21c0-.554.446-1 1-1z"></path><path fill="#0c5286" d="M12 1015.362h23c.554 0 1 .446 1 1v4H11v-4c0-.554.446-1 1-1z"></path><path fill="#ee7581" d="M34 1017.862a.5.5 0 0 1-.5.5.5.5 0 0 1-.5-.5.5.5 0 0 1 .5-.5.5.5 0 0 1 .5.5z"></path><path fill="#8fb6d7" d="M32 1017.862a.5.5 0 0 1-.5.5.5.5 0 0 1-.5-.5.5.5 0 0 1 .5-.5.5.5 0 0 1 .5.5zm-2 0a.5.5 0 0 1-.5.5.5.5 0 0 1-.5-.5.5.5 0 0 1 .5-.5.5.5 0 0 1 .5.5z"></path><path style="isolation:auto;mix-blend-mode:normal" fill="#f9b536" d="M-186 1458.771h-1.22a4.91 4.91 0 0 0-.625-1.521l.858-.859-1.542-1.542-.861.86a4.91 4.91 0 0 0-1.52-.628v-1.219h-2.18v1.221a4.91 4.91 0 0 0-1.522.624l-.859-.858-1.543 1.542.861.861a4.91 4.91 0 0 0-.628 1.52H-198v2.181h1.22a4.91 4.91 0 0 0 .625 1.521l-.859.86 1.543 1.542.86-.861a4.91 4.91 0 0 0 1.52.628v1.22h2.182v-1.222a4.91 4.91 0 0 0 1.521-.624l.859.859 1.542-1.543-.86-.86a4.91 4.91 0 0 0 .628-1.52H-186v-2.182z" color="#000" overflow="visible" transform="translate(225 -423)"></path><path style="line-height:normal;text-indent:0;text-align:start;text-decoration-line:none;text-decoration-style:solid;text-decoration-color:#000;text-transform:none;block-progression:tb;isolation:auto;mix-blend-mode:normal" fill="#f0f4f7" stroke="#0c5286" stroke-linecap="round" stroke-linejoin="round" d="M-190 1459.862c0-1.099-.9-2-2-2-1.099 0-2 .901-2 2 0 1.1.901 2 2 2 1.1 0 2-.9 2-2z" color="#000" font-family="sans-serif" font-weight="400" overflow="visible" transform="translate(225 -423)"></path><path style="isolation:auto;mix-blend-mode:normal" fill="#f9b536" d="M-200 1459.966h-.84a3.375 3.375 0 0 0-.429-1.045l.59-.59-1.06-1.061-.592.591a3.375 3.375 0 0 0-1.044-.432v-.838h-1.5v.84a3.375 3.375 0 0 0-1.046.429l-.59-.59-1.06 1.06.591.592a3.375 3.375 0 0 0-.432 1.044h-.838v1.5h.84a3.375 3.375 0 0 0 .429 1.046l-.59.59 1.06 1.061.592-.592a3.375 3.375 0 0 0 1.044.433v.837h1.5v-.839a3.375 3.375 0 0 0 1.046-.43l.59.591 1.06-1.06-.591-.592a3.375 3.375 0 0 0 .432-1.045h.838v-1.5z" color="#000" overflow="visible" transform="translate(225 -423)"></path><path style="line-height:normal;text-indent:0;text-align:start;text-decoration-line:none;text-decoration-style:solid;text-decoration-color:#000;text-transform:none;block-progression:tb;isolation:auto;mix-blend-mode:normal" fill="#f0f4f7" stroke="#0c5286" stroke-linecap="round" stroke-linejoin="round" d="M-202.979 1460.716a1.15 1.15 0 0 0-1.146-1.145 1.15 1.15 0 0 0-1.146 1.145c0 .63.516 1.146 1.146 1.146a1.15 1.15 0 0 0 1.146-1.146z" color="#000" font-family="sans-serif" font-weight="400" overflow="visible" transform="translate(225 -423)"></path><path fill="none" stroke="#2dbca4" stroke-linecap="round" stroke-linejoin="round" d="m21.004 1030.856 4.992-7.988M16.005 1026.867l2.99 2.99m-2.99-3 2.99-2.99M30.995 1026.867l-2.99 2.99m2.99-3-2.99-2.99"></path></g></svg>