<svg width="224" height="224" viewBox="0 0 224 224" fill="none" xmlns="http://www.w3.org/2000/svg">
<path d="M219.316 54.2297C218.05 49.1568 215.554 44.5269 212.079 40.8034C208.603 37.08 204.27 34.3935 199.513 33.0129C182 28 112 28 112 28C112 28 42 28 24.4873 33.0129C19.73 34.3935 15.3968 37.08 11.9214 40.8034C8.44588 44.5269 5.95005 49.1568 4.68364 54.2297C5.5631e-07 72.9535 0 112 0 112C0 112 5.5631e-07 151.046 4.68364 169.77C5.95005 174.843 8.44588 179.473 11.9214 183.197C15.3968 186.92 19.73 189.607 24.4873 190.987C42 196 112 196 112 196C112 196 182 196 199.513 190.987C204.27 189.607 208.603 186.92 212.079 183.197C215.554 179.473 218.05 174.843 219.316 169.77C224 151.046 224 112 224 112C224 112 224 72.9535 219.316 54.2297Z" fill="#FF0302"/>
<path d="M84 149.333V74.6666L158.667 112L84 149.333Z" fill="#FEFEFE"/>
</svg>
